<svg xmlns="http://www.w3.org/2000/svg">
<defs>
<font id="4.012;UKWN;Vollkorn-Semibold" horiz-adv-x="1033"><font-face font-family="Vollkorn Semibold" font-weight="600" font-stretch="normal" units-per-em="1000" panose-1="0 0 7 0 0 0 0 0 0 0" ascent="952" descent="-441" x-height="0" bbox="-180 -274 977 761" underline-thickness="48" underline-position="-320" unicode-range="U+0021-2044" /><missing-glyph horiz-adv-x="454" d="M51 677 l352 0 l0 -677 l-352 0 l0 677 ZM362 281 l0 270 l-270 0 l0 -270 l270 0 ZM102 541 l70 0 l0 -70 l-70 0 l0 70 ZM282 311 l20 0 l0 10 l-10 0 l0 10 l-10 0 l0 -20 l-10 0 l0 10 l-20 0 l0 20 l-10 0 l0 10 l-10 0 l0 -20 l-10 0 l0 10 l-10 0 l0 -10 l-20 0 l0 10 l10 0 l0 10 l-10 0 l0 10 l10 0 l0 20 l-20 0 l0 20 l10 0 l0 30 l10 0 l0 -40 l10 0 l0 20 l10 0 l0 10 l-10 0 l0 20 l-20 0 l0 10 l-10 0 l0 50 l20 0 l0 20 l-20 0 l0 20 l10 0 l0 -10 l10 0 l0 10 l30 0 l0 -20 l-10 0 l0 10 l-10 0 l0 -20 l10 0 l0 -10 l-10 0 l0 -10 l-20 0 l0 -30 l10 0 l0 20 l10 0 l0 -30 l10 0 l0 50 l10 0 l0 20 l10 0 l0 -10 l10 0 l0 -10 l-10 0 l0 -10 l-10 0 l0 -50 l-10 0 l0 -10 l10 0 l0 -30 l-10 0 l0 -20 l10 0 l0 -20 l20 0 l0 -10 l10 0 l0 10 l-10 0 l0 50 l10 0 l0 10 l-20 0 l0 10 l10 0 l0 20 l10 0 l0 -10 l10 0 l0 -50 l-10 0 l0 -10 l30 0 l0 20 l-10 0 l0 20 l10 0 l0 10 l20 0 l0 20 l10 0 l0 -10 l10 0 l0 -10 l-10 0 l0 -10 l-20 0 l0 -40 l10 0 l0 -20 l10 0 l0 -10 l-10 0 l0 -10 l10 0 l0 -10 l20 0 l0 -10 l10 0 l0 -10 l-20 0 l0 10 l-20 0 l0 -20 l-30 0 l0 10 ZM282 541 l70 0 l0 -70 l-70 0 l0 70 ZM162 481 l0 50 l-50 0 l0 -50 l50 0 ZM342 481 l0 50 l-50 0 l0 -50 l50 0 ZM122 521 l30 0 l0 -30 l-30 0 l0 30 ZM252 521 l10 0 l0 -10 l-10 0 l0 10 ZM302 521 l30 0 l0 -30 l-30 0 l0 30 ZM262 511 l10 0 l0 -10 l-10 0 l0 10 ZM282 451 l-20 0 l0 40 l10 0 l0 -30 l40 0 l0 -10 l-10 0 l0 -10 l-20 0 l0 10 ZM242 481 l10 0 l0 -10 l-10 0 l0 10 ZM102 461 l30 0 l0 -10 l20 0 l0 10 l20 0 l0 -10 l-10 0 l0 -10 l20 0 l0 -10 l-30 0 l0 10 l-40 0 l0 -10 l10 0 l0 -10 l-20 0 l0 40 ZM342 441 l-10 0 l0 20 l20 0 l0 -30 l-10 0 l0 10 ZM232 441 l10 0 l0 -10 l-10 0 l0 10 ZM132 431 l10 0 l0 -10 l-10 
<glyph glyph-name="A" unicode="a" d="M680 50 q7 -24 7 -53 q-39 3 -126 3 q-93 0 -131 -3 q0 34 8 53 q25 3 36.5 10 q11.5 7 11.5 21 q0 15 -14 46 l-33 78 q-155 0 -254 -5 l-20 -52 q-13 -33 -13 -55 q0 -20 12 -30.5 q12 -10.5 37 -12.5 q8 -24 8 -53 q-34 3 -102 3 q-29 0 -86 -3 q0 31 8 52 q26 5 40.5 25.5 q14.5 20.5 39.5 80.5 l208 522 q21 5 49 5 l234 -530 q19 -42 31 -62.5 q12 -20.5 22.5 -29 q10.5 -8.5 26.5 -10.5 ZM417 256 l-65 152 q-27 60 -46 119 q-18 -58 -41 -119 l-58 -152 l210 0 Z" /><glyph glyph-name="B" unicode="b" d="M404 368 q196 -12 196 -172 q0 -89 -64 -142.5 q-64 -53.5 -197 -53.5 q-192 0 -290 -3 q0 37 6 53 q28 2 42.5 10 q14.5 8 20.5 29.5 q6 21.5 6 62.5 l0 381 q0 37 -6 56 q-6 19 -20.5 27 q-14.5 8 -42.5 10 q-5 18 -5 53 q39 -3 105 -3 q53 0 82 1 l85 1 q113 0 172 -34 q59 -34 59 -114 q0 -64 -40 -108 q-40 -44 -109 -54 ZM424 500 q0 64 -39.5 94.5 q-39.5 30.5 -94.5 30.5 q-20 0 -43 -6 l0 -241 l32 0 q145 0 145 122 ZM333 52 q63 0 96 34.5 q33 34.5 33 96.5 q0 143 -191 143 l-24 0 l0 -177 q0 -42 8 -62.5 q8 -20.5 26 -27.5 q18 -7 52 -7 Z" /><glyph glyph-name="C" unicode="c" d="M360 -9 q-95 0 -169 44.5 q-74 44.5 -115 124.5 q-41 80 -41 182 q0 110 47 187.5 q47 77.5 124 116.5 q77 39 166 39 q59 0 112.5 -13 q53.5 -13 108.5 -39 q-11 -57 -11 -155 q-21 -10 -66 -10 q-2 93 -36.5 129.5 q-34.5 36.5 -100.5 36.5 q-107 0 -159 -76 q-52 -76 -52 -189 q0 -88 28 -158 q28 -70 82 -110 q54 -40 129 -40 q44 0 90 14 q46 14 88 40 q7 -6 13 -17 q6 -11 8 -20 q-55 -44 -113 -65.5 q-58 -21.5 -133 -21.5 Z" /><glyph glyph-name="D" unicode="d" d="M323 678 q166 0 270.5 -68.5 q104.5 -68.5 104.5 -254.5 q0 -148 -65.5 -226.5 q-65.5 -78.5 -148.5 -103.5 q-83 -25 -162 -25 q-199 0 -273 -3 q0 37 6 53 q28 2 42.5 10 q14.5 8 20.5 29.5 q6 21.5 6 62.5 l0 381 q0 37 -6 56 q-6 19 -20.5 27 q-14.5 8 -42.5 10 q-5 18 -5 53 q53 -3 159 -3 q36 0 54 1 l60 1 ZM334 53 q106 0 169.5 63.5 q63.5 63.5 63.5 222.5 q0 151 -72.5 221 q-72.5 70 -182.5 70 q-38 0 -65 -10 l0 -467 q0 -41 7 -62 q7 -21 25.5 -29.5 q18.5 -8.5 54.5 -8.5 Z" /><glyph glyph-name="E" unicode="e" d="M520 182 q39 -7 60 -27 q-22 -68 -31 -157 q-90 2 -227 2 q-199 0 -273 -3 q0 37 6 53 q28 2 42 10 q14 8 20 29 q6 21 6 63 l0 381 q0 37 -6 56 q-6 19 -20.5 27 q-14.5 8 -42.5 10 q-5 18 -5 53 q68 -3 196 -3 q161 0 278 3 q10 -113 21 -164 q-22 -13 -60 -13 q-6 57 -40 90.5 q-34 33.5 -117 33.5 l-81 0 l0 -261 l46 0 q58 0 80 16.5 q22 16.5 23 62.5 q24 8 59 8 q-3 -49 -3 -111 q0 -67 3 -117 q-37 0 -57 6 q-4 49 -26 66 q-22 17 -79 17 l-46 0 l0 -160 q0 -41 7.5 -62 q7.5 -21 26 -29.5 q18.5 -8.5 54.5 -8.5 l9 0 q59 0 92.5 14 q33.5 14 51 40 q17.5 26 33.5 75 Z" /><glyph glyph-name="F" unicode="f" d="M246 626 l0 -285 l59 0 q58 0 79.5 16.5 q21.5 16.5 22.5 61.5 q24 9 59 9 q-2 -34 -2 -111 q0 -85 2 -117 q-35 0 -57 6 q-4 49 -25.5 66 q-21.5 17 -78.5 17 l-59 0 l0 -128 q0 -43 9.5 -66.5 q9.5 -23.5 29.5 -33 q20 -9.5 56 -11.5 q6 -17 6 -53 q-49 3 -144 3 q-107 0 -154 -3 q0 37 5 53 q28 2 42.5 10 q14.5 8 20.5 27 q6 19 6 57 l0 389 q0 37 -6 56 q-6 19 -20 27 q-14 8 -42 10 q-6 21 -6 53 q74 -3 195 -3 q162 0 279 3 q7 -106 21 -164 q-22 -13 -60 -13 q-7 58 -40.5 91 q-33.5 33 -116.5 33 l-81 0 Z" /><glyph glyph-name="G" unicode="g" d="M371 -9 q-101 0 -177 43.5 q-76 43.5 -117.5 123.5 q-41.5 80 -41.5 188 q0 107 47.5 183.5 q47.5 76.5 127 116 q79.5 39.5 175.5 39.5 q67 0 129.5 -13 q62.5 -13 109.5 -35 q-11 -57 -11 -155 q-24 -11 -66 -11 q-4 92 -44 127.5 q-40 35.5 -114 35.5 q-73 0 -123 -36.5 q-50 -36.5 -74 -97 q-24 -60.5 -24 -132.5 q0 -91 25.5 -163.5 q25.5 -72.5 75.5 -114 q50 -41.5 120 -41.5 q27 0 46 2.5 q19 2.5 37 9.5 q18 7 25.5 22.5 q7.5 15.5 7.5 51.5 l0 46 q0 43 -6 61 q-6 18 -22 24.5 q-16 6.5 -54 7.5 q-6 20 -6 55 q29 -3 127 -3 q97 0 124 2 q0 -35 -6 -54 q-20 -1 -29 -7 q-9 -6 -12 -23.5 q-3 -17.5 -3 -58.5 l0 -39 q0 -28 2.5 -45.5 q2.5 -17.5 11.5 -33.5 q-47 -34 -114.5 -55 q-67.5 -21 -146.5 -21 Z" /><glyph glyph-name="H" unicode="h" d="M644 144 q0 -38 6 -57 q6 -19 20 -27 q14 -8 42 -10 q6 -19 6 -53 q-55 3 -132 3 q-83 0 -140 -3 q0 30 7 53 q28 2 42 10 q14 8 19.5 27 q5.5 19 5.5 57 l0 177 q-205 0 -274 -7 l0 -170 q0 -38 6 -57 q6 -19 20 -27 q14 -8 42 -10 q6 -16 6 -53 q-55 3 -131 3 q-84 0 -140 -3 q0 34 6 53 q28 2 42 10 q14 8 20 27 q6 19 6 57 l0 389 q0 37 -6 56 q-6 19 -20 27 q-14 8 -42 10 q-6 21 -6 53 q54 -3 137 -3 q74 0 134 3 q0 -15 -1 -29 q-1 -14 -5 -24 q-28 -2 -42 -10 q-14 -8 -20 -27 q-6 -19 -6 -56 l0 -159 l274 0 l0 159 q0 37 -5.5 56 q-5.5 19 -19.5 27 q-14 8 -42 10 q-7 20 -7 53 q54 -3 138 -3 q74 0 134 3 q0 -35 -6 -53 q-28 -2 -42 -10 q-14 -8 -20 -27 q-6 -19 -6 -56 l0 -389 Z" /><glyph glyph-name="I" unicode="i" d="M123 533 q0 37 -6 56 q-6 19 -20 27 q-14 8 -42 10 q-6 21 -6 53 q54 -3 137 -3 q74 0 134 3 q0 -15 -1 -29 q-1 -14 -5 -24 q-28 -2 -42 -10 q-14 -8 -20 -27 q-6 -19 -6 -56 l0 -389 q0 -38 6 -57 q6 -19 20 -27 q14 -8 42 -10 q6 -16 6 -53 q-55 3 -131 3 q-84 0 -140 -3 q0 34 6 53 q28 2 42 10 q14 8 20 27 q6 19 6 57 l0 389 Z" /><glyph glyph-name="J" unicode="j" d="M235 128 q0 -102 -15.5 -166.5 q-15.5 -64.5 -61.5 -115.5 q-46 -51 -137 -95 q-20 13 -23 39 q59 47 86 102.5 q27 55.5 27 149.5 l0 490 q0 38 -5.5 57 q-5.5 19 -19.5 27 q-14 8 -42 10 q-7 20 -7 53 q50 -3 136 -3 q91 0 136 3 q0 -36 -6 -53 q-28 -2 -42 -10 q-14 -8 -20 -27.5 q-6 -19.5 -6 -56.5 l0 -404 Z" /><glyph glyph-name="K" unicode="k" d="M539 151 q38 -53 67 -74 q29 -21 78 -25 q0 -33 -7 -52 q-128 0 -185 -7 q-39 70 -110 166.5 q-71 96.5 -136 160.5 l0 -176 q0 -38 6 -57 q6 -19 20 -27 q14 -8 42 -10 q6 -16 6 -53 q-55 3 -131 3 q-84 0 -140 -3 q0 34 6 53 q28 2 42 10 q14 8 20 27 q6 19 6 57 l0 389 q0 37 -6 56 q-6 19 -20 27 q-14 8 -42 10 q-6 21 -6 53 q54 -3 137 -3 q74 0 134 3 q0 -15 -1 -29 q-1 -14 -5 -24 q-28 -2 -42 -10 q-14 -8 -20 -27 q-6 -19 -6 -56 l0 -173 l174 181 q40 41 40 64 q0 19 -31 21 q-6 19 -6 53 q34 -3 106 -3 q77 0 117 3 q0 -34 -8 -53 q-36 -2 -67.5 -19.5 q-31.5 -17.5 -74.5 -63.5 l-147 -156 q76 -79 190 -236 Z" /><glyph glyph-name="L" unicode="l" d="M343 53 q49 0 79 12.5 q30 12.5 48.5 39.5 q18.5 27 34.5 77 q40 -7 60 -27 q-20 -60 -31 -157 q-88 2 -212 2 q-199 0 -273 -3 q0 37 6 53 q28 2 42.5 10 q14.5 8 20.5 29.5 q6 21.5 6 62.5 l0 381 q0 37 -6 56 q-6 19 -20.5 27 q-14.5 8 -42.5 10 q-5 18 -5 53 q67 -3 135 -3 q76 0 136 3 q0 -36 -6 -53 q-28 -2 -42 -10 q-14 -8 -20 -27.5 q-6 -19.5 -6 -57.5 l0 -378 q0 -41 7 -62 q7 -21 25.5 -29.5 q18.5 -8.5 54.5 -8.5 l9 0 Z" /><glyph glyph-name="M" unicode="m" d="M916 51 q6 -25 6 -54 q-45 3 -141 3 q-84 0 -131 -3 q0 31 7 53 q37 4 50 17 q13 13 13 48 q0 22 -3 53 l-34 324 l-202 -494 q-18 -7 -50 -7 l-227 499 l-30 -295 q-4 -46 -4 -59 q0 -47 15.5 -65.5 q15.5 -18.5 51.5 -20.5 q6 -20 6 -53 q-43 3 -108 3 q-69 0 -107 -3 q0 33 6 53 q28 2 43 14.5 q15 12.5 24 43.5 q9 31 15 93 l30 325 q1 10 1 27 q0 41 -15 57 q-15 16 -52 16 q-6 19 -6 53 q34 -3 94 -3 q55 0 93 3 l231 -519 l200 519 q40 -3 96 -3 q51 0 93 3 q0 -33 -6 -53 q-35 0 -52 -16.5 q-17 -16.5 -17 -59.5 q0 -9 2 -29 l34 -341 q5 -53 13 -79.5 q8 -26.5 21.5 -37 q13.5 -10.5 39.5 -12.5 Z" /><glyph glyph-name="N" unicode="n" d="M597 676 q59 0 98 3 q0 -35 -5 -53 q-24 -1 -36.5 -13.5 q-12.5 -12.5 -18 -42.5 q-5.5 -30 -5.5 -86 l0 -484 q-22 -7 -57 -7 l-393 519 l0 -316 q0 -58 6 -88.5 q6 -30.5 21.5 -43.5 q15.5 -13 44.5 -14 q6 -18 6 -53 q-45 3 -105 3 q-72 0 -108 -3 q0 34 5 53 q29 1 44.5 14 q15.5 13 22 43.5 q6.5 30.5 6.5 88.5 l0 391 l-7 9 q-13 16 -25.5 22 q-12.5 6 -40.5 8 q-5 21 -5 53 q32 -3 90 -3 q49 0 80 3 l357 -478 l0 283 q0 57 -6 86.5 q-6 29.5 -21.5 42 q-15.5 12.5 -45.5 13.5 q-6 28 -6 53 q44 -3 104 -3 Z" /><glyph glyph-name="O" unicode="o" d="M369 -9 q-100 0 -175.5 45 q-75.5 45 -117 124.5 q-41.5 79.5 -41.5 179.5 q0 102 43.5 180 q43.5 78 119.5 121.5 q76 43.5 171 43.5 q97 0 173.5 -43 q76.5 -43 119 -120 q42.5 -77 42.5 -178 q0 -100 -42.5 -180.5 q-42.5 -80.5 -118.5 -126.5 q-76 -46 -174 -46 ZM387 48 q57 0 99 35 q42 35 64.5 96.5 q22.5 61.5 22.5 139.5 q0 86 -28.5 157 q-28.5 71 -79.5 112.5 q-51 41.5 -115 41.5 q-53 0 -95 -32.5 q-42 -32.5 -65.5 -92.5 q-23.5 -60 -23.5 -139 q0 -85 26 -157.5 q26 -72.5 76 -116.5 q50 -44 119 -44 Z" /><glyph glyph-name="P" unicode="p" d="M321 298 q55 0 90.5 35 q35.5 35 35.5 118 q0 81 -37.5 127 q-37.5 46 -115.5 46 q-23 0 -48 -6 l0 -457 q0 -43 9.5 -66.5 q9.5 -23.5 29.5 -33 q20 -9.5 56 -11.5 q6 -17 6 -53 q-49 3 -145 3 q-106 0 -153 -3 q0 37 5 53 q28 2 42.5 10 q14.5 8 20.5 27 q6 19 6 57 l0 389 q0 37 -6 56 q-6 19 -20 27 q-14 8 -42 10 q-6 21 -6 53 q55 -3 143 -3 l85 1 q26 1 62 1 q125 0 181.5 -54.5 q56.5 -54.5 56.5 -143.5 q0 -64 -27 -118.5 q-27 -54.5 -80 -87 q-53 -32.5 -127 -32.5 q-42 0 -70 11 q-2 12 -2 19 q0 16 6 31 q17 -5 44 -5 Z" /><glyph glyph-name="Q" unicode="q" d="M495 13 q29 -9 52 -22 q23 -13 53 -33 q42 -27 73.5 -40.5 q31.5 -13.5 74.5 -13.5 q15 0 23 1 q0 -30 -7 -52 q-74 -16 -141 -47 q-37 11 -61.5 33 q-24.5 22 -51.5 58 q-33 42 -62 65 q-29 23 -79 29 q-100 0 -175.5 45 q-75.5 45 -117 124.5 q-41.5 79.5 -41.5 179.5 q0 102 43.5 180 q43.5 78 119.5 121.5 q76 43.5 171 43.5 q97 0 173.5 -43 q76.5 -43 119 -120 q42.5 -77 42.5 -178 q0 -116 -56 -204.5 q-56 -88.5 -153 -126.5 ZM166 366 q0 -85 26 -157.5 q26 -72.5 76 -116.5 q50 -44 119 -44 q57 0 99 35 q42 35 64.5 96.5 q22.5 61.5 22.5 139.5 q0 86 -28.5 157 q-28.5 71 -79.5 112.5 q-51 41.5 -115 41.5 q-53 0 -95 -32.5 q-42 -32.5 -65.5 -92.5 q-23.5 -60 -23.5 -139 Z" /><glyph glyph-name="R" unicode="r" d="M553 141 q20 -35 34.5 -52.5 q14.5 -17.5 33.5 -25.5 q19 -8 51 -10 q0 -33 -6 -53 q-116 0 -176 -9 q-31 54 -50 94.5 q-19 40.5 -23 49.5 q-29 56 -51 89 q-22 33 -60 70 l-31 -1 l-29 1 l0 -148 q0 -39 5.5 -59 q5.5 -20 18.5 -28 q13 -8 38 -9 q5 -16 5 -53 q-42 3 -134 3 q-79 0 -130 -3 q0 35 6 53 q28 2 42 10 q14 8 20 27 q6 19 6 57 l0 389 q0 38 -6 57.5 q-6 19.5 -20.5 27.5 q-14.5 8 -42.5 9 q-5 19 -5 52 q37 -3 134 -3 l79 1 q64 2 99 2 q112 0 169.5 -48.5 q57.5 -48.5 57.5 -125.5 q0 -72 -43.5 -121 q-43.5 -49 -118.5 -68 q35 -30 58.5 -63 q23.5 -33 68.5 -112 ZM246 350 q24 -3 40 -3 q76 0 124.5 36.5 q48.5 36.5 48.5 107.5 q0 64 -36.5 99.5 q-36.5 35.5 -111.5 35.5 q-31 0 -65 -8 l0 -268 Z" /><glyph glyph-name="S" unicode="s" d="M272 -9 q-61 0 -111 15.5 q-50 15.5 -104 46.5 q10 57 10 150 q29 8 73 8 q5 -85 37 -124 q32 -39 104 -39 q60 0 89.5 26.5 q29.5 26.5 29.5 67.5 q0 33 -18.5 57 q-18.5 24 -46.5 40.5 q-28 16.5 -75 38.5 q-61 28 -99 52.5 q-38 24.5 -64.5 65.5 q-26.5 41 -26.5 102 q0 89 58 138 q58 49 155 49 q51 0 100 -12.5 q49 -12.5 78 -31.5 q0 -96 6 -137 q-25 -13 -73 -13 q-14 80 -41 110 q-27 30 -75 30 q-48 0 -75.5 -23 q-27.5 -23 -27.5 -65 q0 -35 19.5 -60 q19.5 -25 48.5 -42 q29 -17 79 -41 q61 -29 99 -53 q38 -24 64.5 -63.5 q26.5 -39.5 26.5 -96.5 q0 -56 -26.5 -100 q-26.5 -44 -80.5 -70 q-54 -26 -133 -26 Z" /><glyph glyph-name="T" unicode="t" d="M586 679 q-3 -71 11 -168 q-28 -12 -65 -11 q-5 63 -31.5 93 q-26.5 30 -81.5 30 l-44 0 l0 -479 q0 -38 6.5 -57 q6.5 -19 23.5 -27 q17 -8 53 -10 q7 -18 7 -53 q-63 3 -149 3 q-100 0 -159 -3 q0 35 7 53 q36 2 54 10 q18 8 25.5 27 q7.5 19 7.5 57 l0 479 l-37 0 q-43 0 -67.5 -14 q-24.5 -14 -36.5 -39.5 q-12 -25.5 -22 -69.5 q-43 0 -63 10 q19 97 19 169 q63 -3 271 -3 q208 0 271 3 Z" /><glyph glyph-name="U" unicode="u" d="M577 271 q0 -91 -12 -141 q-12 -50 -46 -83 q-56 -56 -166 -56 q-94 0 -148.5 26.5 q-54.5 26.5 -78 79.5 q-23.5 53 -23.5 136 l0 299 q0 39 -5 57.5 q-5 18.5 -17 25.5 q-12 7 -39 11 q-6 19 -6 53 q40 -3 121 -3 q95 0 142 3 q0 -32 -5 -53 q-31 -3 -44.5 -10 q-13.5 -7 -18.5 -25.5 q-5 -18.5 -5 -58.5 l0 -284 q0 -94 35.5 -145 q35.5 -51 118.5 -51 q27 0 54.5 9.5 q27.5 9.5 45.5 29.5 q22 23 30.5 61 q8.5 38 8.5 116 l0 229 q0 50 -5.5 76 q-5.5 26 -19.5 38 q-14 12 -43 15 q-5 28 -5 53 q36 -3 99 -3 q59 0 98 3 q0 -27 -6 -53 q-24 -3 -37 -14.5 q-13 -11.5 -18 -37 q-5 -25.5 -5 -74.5 l0 -229 Z" /><glyph glyph-name="V" unicode="v" d="M570 676 q62 0 101 3 q0 -27 -6 -53 q-28 -6 -46 -31.5 q-18 -25.5 -39 -81.5 q-118 -301 -208 -514 q-19 -6 -54 -6 q-110 297 -206 517 q-23 53 -34.5 75 q-11.5 22 -22 30.5 q-10.5 8.5 -28.5 10.5 q-6 20 -6 53 q42 -3 133 -3 q66 0 134 3 q0 -30 -6 -53 q-30 -2 -43.5 -9.5 q-13.5 -7.5 -13.5 -25.5 q0 -20 22 -72 q79 -188 135 -355 q86 199 140 353 q12 33 12 57 q0 46 -51 52 q-6 19 -6 53 q41 -3 93 -3 Z" /><glyph glyph-name="W" unicode="w" d="M878 676 q58 0 99 3 q0 -33 -7 -53 q-18 -5 -30.5 -18 q-12.5 -13 -24 -41 q-11.5 -28 -29.5 -85 l-150 -484 q-20 -7 -59 -7 q-82 233 -184 494 l-165 -488 q-24 -6 -60 -6 q-92 304 -163 515 q-19 58 -29.5 80.5 q-10.5 22.5 -20 29.5 q-9.5 7 -29.5 9 q-5 21 -5 54 q48 -3 128 -3 q76 0 135 3 q0 -30 -6 -53 q-34 -2 -47.5 -10 q-13.5 -8 -13.5 -27 q0 -21 17 -70 q59 -177 101 -326 l166 485 q18 6 56 6 q89 -233 183 -496 l92 296 q15 50 15 78 q0 30 -15.5 44.5 q-15.5 14.5 -48.5 19.5 q-8 21 -8 53 q42 -3 103 -3 Z" /><glyph glyph-name="X" unicode="x" d="M643 50 q7 -21 7 -53 q-43 3 -140 3 q-77 0 -137 -2 q0 30 5 52 q22 2 32.5 7.5 q10.5 5.5 10.5 18.5 q0 23 -39 88 q-27 47 -66 109 l-72 -106 q-20 -30 -29.5 -49.5 q-9.5 -19.5 -9.5 -32.5 q0 -14 11.5 -22 q11.5 -8 36.5 -13 q6 -20 6 -53 q-51 3 -115 3 q-69 0 -110 -3 q0 34 7 55 q32 8 62 32.5 q30 24.5 67 74.5 l115 165 q-44 71 -119 185 q-35 53 -52 75.5 q-17 22.5 -28.5 30 q-11.5 7.5 -29.5 10.5 q-7 22 -7 54 q52 -3 146 -3 q66 0 128 2 q0 -29 -5 -52 q-23 -4 -33.5 -11 q-10.5 -7 -10.5 -21 q0 -22 32 -71 l53 -81 l20 -31 l63 99 q36 59 36 83 q0 15 -11.5 22.5 q-11.5 7.5 -34.5 10.5 q-6 20 -6 53 q50 -3 108 -3 q66 0 103 3 q0 -35 -5 -53 q-31 -8 -54.5 -29 q-23.5 -21 -64.5 -84 l-101 -154 l11 -18 q64 -103 98 -161 q33 -54 52.5 -80.5 q19.5 -26.5 34.5 -36.5 q15 -10 35 -13 Z" /><glyph glyph-name="Y" unicode="y" d="M522 676 q38 0 88 2 q0 -23 -5 -50 q-26 -6 -47.5 -29 q-21.5 -23 -44.5 -72 l-132 -272 l0 -82 q0 -54 6 -77.5 q6 -23.5 22 -32.5 q16 -9 55 -13 q7 -20 7 -53 q-72 3 -151 3 q-83 0 -157 -2 q0 31 7 52 q42 3 59 11 q17 8 23 30 q6 22 6 73 l0 90 l-159 314 q-16 32 -31.5 45 q-15.5 13 -40.5 14 q-6 20 -6 51 q66 -2 122 -2 q109 0 143 2 q0 -29 -5 -50 q-23 -2 -33 -9.5 q-10 -7.5 -10 -21.5 q0 -17 17 -51 q50 -100 104 -226 q49 115 99 217 q18 36 18 55 q0 15 -11 23.5 q-11 8.5 -34 11.5 q-8 26 -8 51 q27 -2 99 -2 Z" /><glyph glyph-name="Z" unicode="z" d="M497 181 q40 -3 68 -20 q-8 -34 -14 -79.5 q-6 -45.5 -7 -84.5 q-93 3 -260 3 q-153 0 -222 -3 q-12 21 -12 43 l17 28 q85 141 171 286 q86 145 157 272 l-117 0 q-43 0 -67.5 -10 q-24.5 -10 -40.5 -38 q-16 -28 -27 -84 q-51 0 -71 11 q10 35 15.5 82 q5.5 47 5.5 91 q86 -2 241 -2 q132 0 200 2 q12 -17 14 -43 q-157 -289 -341 -584 l121 0 q59 0 90.5 10 q31.5 10 49 37 q17.5 27 29.5 83 Z" /><glyph glyph-name="a" unicode="a" d="M491 64 q0 -22 -8 -41 q-31 -2 -66 -10.5 q-35 -8.5 -63 -21.5 q-14 5 -21 19 q-7 14 -7 39 q0 15 3 33 q-14 -34 -39 -54 q-40 -35 -111 -35 q-65 0 -100.5 28.5 q-35.5 28.5 -35.5 80.5 q0 85 78 120.5 q78 35.5 191 51.5 q0 52 -4 75 q-4 23 -17 39 q-23 27 -59 27 q-42 0 -61.5 -34 q-19.5 -34 -22.5 -80 q-47 0 -68 9 q2 24 2 38 q0 43 -7 77 q41 19 91 30.5 q50 11.5 94 11.5 q84 0 127 -41 q23 -24 33 -63 q10 -39 10 -107 l0 -98 q0 -32 4.5 -48 q4.5 -16 17 -23 q12.5 -7 38.5 -9 l1 -14 ZM312 226 q-71 -10 -109 -30.5 q-38 -20.5 -38 -69.5 q0 -31 15 -47 q15 -16 38 -16 q22 0 44 14.5 q22 14.5 36 44 q14 29.5 14 72.5 l0 32 Z" /><glyph glyph-name="b" unicode="b" d="M346 467 q90 0 141 -53.5 q51 -53.5 51 -162.5 q0 -74 -32.5 -133 q-32.5 -59 -92 -93 q-59.5 -34 -136.5 -34 q-70 0 -128.5 19.5 q-58.5 19.5 -90.5 50.5 q12 14 17.5 41 q5.5 27 5.5 77 l0 386 q0 26 -5.5 40.5 q-5.5 14.5 -21.5 22 q-16 7.5 -48 8.5 q0 31 10 47 q37 0 87.5 10.5 q50.5 10.5 69.5 23.5 q25 -10 25 -47 l0 -236 q0 -24 -4 -54 q9 15 17 23 q18 24 54.5 44 q36.5 20 80.5 20 ZM279 44 q52 0 93 42.5 q41 42.5 41 146.5 q0 52 -14.5 88.5 q-14.5 36.5 -38 54.5 q-23.5 18 -49.5 18 q-47 0 -80 -44 q-33 -44 -33 -136 l0 -135 q17 -17 36.5 -26 q19.5 -9 44.5 -9 Z" /><glyph glyph-name="c" unicode="c" d="M261 -9 q-61 0 -112 26.5 q-51 26.5 -81.5 80 q-30.5 53.5 -30.5 129.5 q0 62 25.5 117 q25.5 55 76 89 q50.5 34 119.5 34 q98 0 159 -43 q-9 -50 -9 -119 q-20 -11 -62 -11 q-4 57 -29 88 q-25 31 -64 31 q-45 0 -71 -46 q-26 -46 -26 -125 q0 -76 36.5 -130 q36.5 -54 102.5 -54 q32 0 60 12.5 q28 12.5 48 35.5 q20 -14 25 -38 q-55 -77 -167 -77 Z" /><glyph glyph-name="d" unicode="d" d="M555 78 q2 -35 -8 -55 q-32 -2 -68 -10.5 q-36 -8.5 -64 -21.5 q-15 6 -21.5 17.5 q-6.5 11.5 -6.5 40.5 q0 24 7 52 q-13 -24 -30 -46 q-18 -24 -54.5 -44 q-36.5 -20 -80.5 -20 q-90 0 -141 53.5 q-51 53.5 -51 162.5 q0 74 33 133 q33 59 92.5 93 q59.5 34 136.5 34 q33 0 78 -12 l0 110 q0 26 -5.5 40.5 q-5.5 14.5 -21.5 22 q-16 7.5 -48 8.5 q0 31 10 47 q37 0 87.5 10.5 q50.5 10.5 69.5 23.5 q26 -10 26 -47 l0 -517 q0 -30 4 -45.5 q4 -15.5 17 -22.5 q13 -7 39 -7 ZM264 64 q47 0 80 44 q33 44 33 136 l0 135 q-17 17 -36.5 26 q-19.5 9 -44.5 9 q-52 0 -93 -42.5 q-41 -42.5 -41 -146.5 q0 -52 14.5 -88.5 q14.5 -36.5 38 -54.5 q23.5 -18 49.5 -18 Z" /><glyph glyph-name="e" unicode="e" d="M427 109 q9 -5 16.5 -17 q7.5 -12 8.5 -24 q-36 -40 -82 -58.5 q-46 -18.5 -105 -18.5 q-112 0 -170 66 q-58 66 -58 171 q0 68 27 122 q27 54 77 85.5 q50 31.5 116 31.5 q98 0 146 -57 q48 -57 53 -153 q-6 -25 -20 -41 q-154 0 -274 -6 q7 -69 40.5 -111 q33.5 -42 100.5 -42 q34 0 67 13.5 q33 13.5 57 38.5 ZM252 412 q-39 0 -64 -34.5 q-25 -34.5 -28 -109.5 l175 0 q0 67 -22 105.5 q-22 38.5 -61 38.5 Z" /><glyph glyph-name="f" unicode="f" d="M443 688 q-6 -60 -4 -123 q-27 -10 -74 -10 q0 45 -17.5 72 q-17.5 27 -52.5 27 q-35 0 -50 -33 q-15 -33 -15 -104 l0 -69 l106 0 q0 -37 -10 -56 q-57 0 -96 -12 l0 -219 q0 -43 9 -66.5 q9 -23.5 29 -33 q20 -9.5 56 -11.5 q7 -16 7 -53 q-49 3 -141 3 q-104 0 -152 -3 q0 37 6 53 q28 2 42 10 q14 8 20 27 q6 19 6 57 l0 240 q-41 10 -78 10 q0 35 14 54 l64 0 l0 37 q0 74 30.5 126 q30.5 52 80.5 78 q50 26 110 26 q64 0 110 -27 Z" /><glyph glyph-name="g" unicode="g" d="M304 72 q98 -1 141.5 -26 q43.5 -25 43.5 -90 q0 -51 -34.5 -98.5 q-34.5 -47.5 -96.5 -77 q-62 -29.5 -140 -29.5 q-97 0 -140 33 q-43 33 -43 96 q0 35 19 62 q19 27 55 42 q-24 11 -35 30 q-11 19 -11 49 q0 58 56 109 q-69 43 -69 130 q0 74 50.5 119.5 q50.5 45.5 142.5 45.5 q40 0 70 -9 l177 0 q8 -25 8 -70 q-43 13 -96 18 q22 -23 33.5 -51 q11.5 -28 11.5 -53 q0 -71 -52 -116.5 q-52 -45.5 -148 -45.5 q-40 0 -73 9 q-21 -21 -21 -39 q0 -17 13.5 -25 q13.5 -8 43.5 -10.5 q30 -2.5 94 -2.5 ZM240 418 q-34 0 -52.5 -29 q-18.5 -29 -18.5 -74 q0 -59 24 -91 q24 -32 67 -32 q32 0 50.5 26.5 q18.5 26.5 18.5 75.5 q0 55 -24 89.5 q-24 34.5 -65 34.5 ZM246 -189 q63 0 100.5 27.5 q37.5 27.5 37.5 68.5 q0 23 -11.5 35 q-11.5 12 -42 17.5 q-30.5 5.5 -89.5 5.5 q-40 0 -77 5 q-15 -15 -21 -30.5 q-6 -15.5 -6 -35.5 q0 -48 25 -70.5 q25 -22.5 84 -22.5 Z" /><glyph glyph-name="h" unicode="h" d="M585 50 q7 -21 7 -53 q-45 3 -118 3 q-38 0 -131 -3 q0 36 7 53 q33 0 48 20 q15 20 15 70 l0 129 q0 63 -22 89.5 q-22 26.5 -63 26.5 q-27 0 -51 -18 q-24 -18 -39 -54.5 q-15 -36.5 -15 -90.5 l0 -85 q0 -50 14 -68.5 q14 -18.5 49 -18.5 q7 -19 7 -53 q-87 3 -129 3 q-88 0 -132 -3 q0 37 6 53 q39 0 53.5 18.5 q14.5 18.5 14.5 68.5 l0 428 q0 26 -5.5 40.5 q-5.5 14.5 -21.5 22 q-16 7.5 -48 8.5 q0 31 10 47 q37 0 87.5 10.5 q50.5 10.5 69.5 23.5 q25 -10 25 -47 l0 -253 q0 -28 -8 -59 q1 3 7 14.5 q6 11.5 15 22.5 q20 27 58 47 q38 20 84 20 q66 0 108.5 -39.5 q42.5 -39.5 42.5 -123.5 l0 -162 q0 -49 12.5 -68 q12.5 -19 42.5 -19 Z" /><glyph glyph-name="i" unicode="i" d="M158 562 q-31 0 -51 18.5 q-20 18.5 -20 45.5 q0 31 21 50 q21 19 52 19 q34 0 53.5 -18 q19.5 -18 19.5 -50 q0 -27 -21 -46 q-21 -19 -54 -19 ZM36 -3 q0 35 6 53 q40 1 54 19 q14 18 14 68 l0 178 q0 26 -5.5 40.5 q-5.5 14.5 -21.5 22 q-16 7.5 -48 8.5 q0 31 10 47 q37 0 87.5 10.5 q50.5 10.5 69.5 23.5 q25 -10 25 -47 l0 -283 q0 -49 13.5 -67.5 q13.5 -18.5 47.5 -19.5 q6 -19 6 -53 q-48 3 -128 3 q-85 0 -130 -3 Z" /><glyph glyph-name="j" unicode="j" d="M157 562 q-31 0 -51 18.5 q-20 18.5 -20 45.5 q0 31 21 50 q21 19 52 19 q34 0 53.5 -18 q19.5 -18 19.5 -50 q0 -27 -21 -46 q-21 -19 -54 -19 ZM43 -249 q-12 5 -20 16 q-8 11 -9 25 q54 60 74 109.5 q20 49.5 20 122.5 l0 291 q0 26 -5 40.5 q-5 14.5 -21 22 q-16 7.5 -48 8.5 q0 31 10 47 q37 0 87 10.5 q50 10.5 69 23.5 q26 -10 26 -47 l0 -373 q0 -104 -54 -179.5 q-54 -75.5 -129 -116.5 Z" /><glyph glyph-name="k" unicode="k" d="M465 110 q26 -33 44 -44 q18 -11 50 -14 q0 -33 -8 -52 q-88 0 -145 -9 q-27 43 -79 108 q-52 65 -104 121 l0 -83 q0 -49 12 -67.5 q12 -18.5 43 -19.5 q6 -19 6 -53 q-48 3 -124 3 q-83 0 -128 -3 q0 35 6 53 q40 1 54 19 q14 18 14 68 l0 428 q0 26 -5.5 40.5 q-5.5 14.5 -21.5 22 q-16 7.5 -48 8.5 q0 31 10 47 q37 0 87.5 10.5 q50.5 10.5 69.5 23.5 q25 -10 25 -47 l0 -413 l72 66 q56 49 56 70 q0 15 -28 16 q-8 27 -8 51 q38 -2 123 -2 q60 0 94 2 q0 -28 -9 -52 q-34 -2 -61 -14.5 q-27 -12.5 -63 -45.5 l-79 -72 q56 -55 145 -166 Z" /><glyph glyph-name="l" unicode="l" d="M32 -3 q0 35 6 53 q40 1 54 19 q14 18 14 68 l0 431 q0 36 -15 51.5 q-15 15.5 -60 16.5 q0 31 10 47 q37 0 87.5 10.5 q50.5 10.5 69.5 23.5 q25 -10 25 -47 l0 -533 q0 -49 13.5 -67.5 q13.5 -18.5 47.5 -19.5 q6 -19 6 -53 q-48 3 -128 3 q-85 0 -130 -3 Z" /><glyph glyph-name="m" unicode="m" d="M888 50 q6 -18 6 -53 q-46 3 -117 3 q-80 0 -131 -3 q0 35 6 53 q25 1 38.5 9.5 q13.5 8.5 19 28.5 q5.5 20 5.5 59 l0 123 q0 63 -21 89 q-21 26 -60 26 q-44 0 -74 -41.5 q-30 -41.5 -30 -121.5 l0 -84 q0 -50 13.5 -68 q13.5 -18 50.5 -20 q6 -17 6 -53 q-49 3 -128 3 q-75 0 -129 -3 q0 36 6 53 q26 2 39.5 10 q13.5 8 19 28.5 q5.5 20.5 5.5 61.5 l0 126 q0 62 -21 87.5 q-21 25.5 -62 25.5 q-27 0 -50.5 -18.5 q-23.5 -18.5 -38 -55.5 q-14.5 -37 -14.5 -90 l0 -87 q0 -35 5.5 -53 q5.5 -18 19 -25.5 q13.5 -7.5 39.5 -9.5 q6 -18 6 -53 q-49 3 -132 3 q-82 0 -129 -3 q0 35 6 52 q40 3 54 20.5 q14 17.5 14 67.5 l0 169 q0 31 -5 46.5 q-5 15.5 -21 23.5 q-16 8 -49 10 q0 26 11 47 q36 2 83 12 q47 10 69 22 q26 -9 26 -47 q0 -20 -7 -65 q14 34 23 44 q21 27 58.5 47 q37.5 20 82.5 20 q46 0 81 -20 q35 -20 52 -61 q6 -11 8 -30 q10 27 24 41 q21 27 56.5 46 q35.5 19 79.5 19 q70 0 110 -39.5 q40 -39.5 40 -126.5 l0 -145 q0 -41 5.5 -62 q5.5 -21 17 -28.5 q11.5 -7.5 33.5 -9.5 Z" /><glyph glyph-name="n" unicode="n" d="M589 50 q7 -21 7 -53 q-45 3 -118 3 q-38 0 -131 -3 q0 36 7 53 q33 0 48 20 q15 20 15 70 l0 129 q0 63 -22 89.5 q-22 26.5 -63 26.5 q-27 0 -51 -18 q-24 -18 -39 -54.5 q-15 -36.5 -15 -90.5 l0 -85 q0 -50 14 -68.5 q14 -18.5 49 -18.5 q7 -19 7 -53 q-87 3 -128 3 q-89 0 -133 -3 q0 37 6 53 q39 0 53.5 18.5 q14.5 18.5 14.5 68.5 l0 173 q0 28 -5 43.5 q-5 15.5 -21 23.5 q-16 8 -48 9 q0 31 10 47 q42 1 87 11.5 q45 10.5 69 22.5 q25 -10 25 -50 q0 -28 -8 -59 q1 3 7 14.5 q6 11.5 15 22.5 q20 27 58 47 q38 20 84 20 q66 0 109 -39.5 q43 -39.5 43 -123.5 l0 -162 q0 -50 12.5 -68.5 q12.5 -18.5 41.5 -18.5 Z" /><glyph glyph-name="o" unicode="o" d="M275 -9 q-111 0 -174.5 63.5 q-63.5 63.5 -63.5 172.5 q0 71 31 125.5 q31 54.5 85.5 84.5 q54.5 30 123.5 30 q113 0 176 -64.5 q63 -64.5 63 -171.5 q0 -71 -30 -125 q-30 -54 -84.5 -84.5 q-54.5 -30.5 -126.5 -30.5 ZM286 47 q51 0 78 45.5 q27 45.5 27 120.5 q0 61 -17 106 q-17 45 -45.5 69 q-28.5 24 -62.5 24 q-50 0 -76.5 -44 q-26.5 -44 -26.5 -116 q0 -95 33 -150 q33 -55 90 -55 Z" /><glyph glyph-name="p" unicode="p" d="M305 -9 q-33 0 -78 12 l0 -84 q0 -43 9.5 -66.5 q9.5 -23.5 29.5 -33 q20 -9.5 56 -11.5 q6 -17 6 -53 q-50 3 -141 3 q-105 0 -151 -3 q0 35 5 53 q28 2 42.5 10 q14.5 8 20.5 27.5 q6 19.5 6 56.5 l0 408 q0 28 -5 43.5 q-5 15.5 -21 23.5 q-16 8 -48 9 q0 31 10 47 q42 1 87 11.5 q45 10.5 69 22.5 q25 -10 25 -50 q0 -14 -7 -42 q9 17 20 28 q18 24 54.5 44 q36.5 20 80.5 20 q90 0 141 -52.5 q51 -52.5 51 -157.5 q0 -77 -32.5 -137.5 q-32.5 -60.5 -92 -94.5 q-59.5 -34 -137.5 -34 ZM340 394 q-47 0 -80 -44 q-33 -44 -33 -136 l0 -135 q17 -17 36.5 -26 q19.5 -9 44.5 -9 q52 0 93 42.5 q41 42.5 41 146.5 q0 72 -27.5 116.5 q-27.5 44.5 -74.5 44.5 Z" /><glyph glyph-name="q" unicode="q" d="M561 -193 q6 -18 6 -52 q-45 3 -141 3 q-93 0 -144 -3 q0 35 6 52 q37 2 55 11 q18 9 25.5 29 q7.5 20 7.5 59 l0 103 q0 47 14 103 q-16 -38 -32 -56 q-22 -25 -58 -41 q-36 -16 -75 -16 q-53 0 -95.5 24.5 q-42.5 24.5 -67.5 72 q-25 47.5 -25 114.5 q0 72 32.5 130.5 q32.5 58.5 91.5 92.5 q59 34 134 34 q72 0 127.5 -18 q55.5 -18 92.5 -51 q-11 -21 -16 -48.5 q-5 -27.5 -5 -76.5 l0 -366 q0 -40 5.5 -60 q5.5 -20 19.5 -28.5 q14 -8.5 42 -11.5 ZM272 67 q25 0 48.5 16.5 q23.5 16.5 39.5 54 q16 37.5 16 96.5 l0 145 q-11 14 -33 24.5 q-22 10.5 -45 10.5 q-61 0 -98.5 -49 q-37.5 -49 -37.5 -140 q0 -82 31.5 -120 q31.5 -38 78.5 -38 Z" /><glyph glyph-name="r" unicode="r" d="M430 435 q-4 -26 -6.5 -64 q-2.5 -38 -1.5 -68 q-11 -5 -31.5 -8 q-20.5 -3 -38.5 -3 q-2 42 -13.5 58 q-11.5 16 -33.5 16 q-16 0 -34.5 -18.5 q-18.5 -18.5 -31 -49 q-12.5 -30.5 -12.5 -64.5 l0 -73 q0 -43 9.5 -66.5 q9.5 -23.5 29.5 -33 q20 -9.5 56 -11.5 q6 -17 6 -53 q-49 3 -141 3 q-104 0 -151 -3 q0 37 5 53 q28 2 42.5 10 q14.5 8 20.5 27.5 q6 19.5 6 56.5 l0 166 q0 28 -5 43.5 q-5 15.5 -21 23.5 q-16 8 -48 9 q0 31 10 47 q42 1 87 11.5 q45 10.5 69 22.5 q25 -10 25 -50 q0 -22 -4.5 -46.5 q-4.5 -24.5 -9.5 -48.5 q3 9 10 28 q7 19 13 28 q23 37 54.5 59 q31.5 22 69.5 22 q37 0 70 -24 Z" /><glyph glyph-name="s" unicode="s" d="M376 329 q-24 -15 -63 -15 q-4 42 -32 72 q-28 30 -72 30 q-27 0 -43 -13.5 q-16 -13.5 -16 -35.5 q0 -17 7.5 -28.5 q7.5 -11.5 31.5 -25.5 q24 -14 75 -34 q56 -22 87 -42.5 q31 -20.5 44.5 -44.5 q13.5 -24 13.5 -59 q0 -65 -54.5 -103.5 q-54.5 -38.5 -142.5 -38.5 q-59 0 -97 8.5 q-38 8.5 -76 27.5 q3 27 3 68 q0 26 -2 56 q21 14 66 14 q7 -58 35.5 -88 q28.5 -30 74.5 -30 q35 0 55.5 15.5 q20.5 15.5 20.5 40.5 q0 25 -20 42 q-20 17 -82 42 q-55 21 -85.5 40 q-30.5 19 -45.5 45.5 q-15 26.5 -15 67.5 q0 41 25.5 69.5 q25.5 28.5 66 43 q40.5 14.5 84.5 14.5 q48 0 84.5 -8 q36.5 -8 68.5 -25 q-1 -13 -1 -40 q0 -37 4 -65 Z" /><glyph glyph-name="t" unicode="t" d="M217 -9 q-66 0 -97 34 q-31 34 -31 110 l0 247 q-32 11 -73 12 q0 32 10 54 l63 0 l0 127 q26 5 52.5 17.5 q26.5 12.5 44.5 27.5 q12 -5 16 -15.5 q4 -10.5 4 -41.5 l0 -115 l127 0 q0 -28 -9 -54 q-66 -1 -118 -14 l0 -226 q0 -54 14 -77 q14 -23 41 -23 q36 0 64 21 q13 -18 15 -42 q-18 -18 -53 -30 q-35 -12 -70 -12 Z" /><glyph glyph-name="u" unicode="u" d="M556 78 q2 -35 -8 -55 q-32 -2 -68 -10.5 q-36 -8.5 -64 -21.5 q-15 6 -22 17.5 q-7 11.5 -7 40.5 q0 19 4 43 q-11 -26 -33 -48 q-25 -25 -56.5 -37 q-31.5 -12 -73.5 -12 q-74 0 -110.5 41.5 q-36.5 41.5 -36.5 139.5 l0 134 q0 29 -4 44 q-4 15 -18 23 q-14 8 -43 9 q0 31 8 47 q41 1 82.5 11 q41.5 10 66.5 23 q25 -10 25 -50 l0 -218 q0 -68 16.5 -99.5 q16.5 -31.5 55.5 -31.5 q48 0 78 42.5 q30 42.5 30 122.5 l0 82 q0 28 -5.5 43.5 q-5.5 15.5 -21 23.5 q-15.5 8 -47.5 9 q0 17 1.5 27.5 q1.5 10.5 6.5 19.5 q48 1 91 9.5 q43 8.5 67 19.5 q25 -10 25 -50 l0 -264 q0 -44 11.5 -59 q11.5 -15 49.5 -16 Z" /><glyph glyph-name="v" unicode="v" d="M433 458 q58 0 97 3 q0 -30 -10 -53 q-25 -5 -40 -24 q-15 -19 -37 -72 l-136 -310 q-23 -13 -65 -11 q-21 53 -74 171 q-53 118 -85 185 q-18 36 -29.5 47 q-11.5 11 -32.5 14 q-7 25 -7 53 q42 -3 119 -3 q87 0 135 3 q0 -23 -8 -51 q-31 -3 -43.5 -8.5 q-12.5 -5.5 -12.5 -18.5 q0 -13 14 -41 q44 -97 90 -220 q29 78 56 140 l18 43 q15 41 15 62 q0 20 -12 30 q-12 10 -36 12 q-11 28 -11 52 q39 -3 95 -3 Z" /><glyph glyph-name="w" unicode="w" d="M675 458 q55 0 92 3 q0 -30 -9 -53 q-23 -6 -36.5 -26.5 q-13.5 -20.5 -33.5 -82.5 l-101 -299 q-19 -9 -65 -9 q-14 33 -40 99 q-49 117 -85 209 l-125 -299 q-18 -9 -63 -9 q-80 232 -131 358 q-11 28 -23.5 41 q-12.5 13 -33.5 18 q-7 20 -7 52 q66 -2 111 -2 q69 0 126 3 q0 -36 -7 -53 q-25 -2 -35 -8.5 q-10 -6.5 -10 -19.5 q0 -11 8 -35 q33 -87 68 -206 l125 318 q16 6 51 6 q64 -146 132 -325 l49 157 q12 39 12 62 q0 24 -12.5 35.5 q-12.5 11.5 -37.5 15.5 q-9 26 -9 53 q38 -3 90 -3 Z" /><glyph glyph-name="x" unicode="x" d="M510 50 q7 -17 7 -51 q-19 1 -52 1 l-54 0 q-105 0 -143 -2 q0 15 1 29 q1 14 4 23 q36 2 36 21 q0 15 -19 44 l-18 28 l-27 40 l-33 -48 q-28 -43 -28 -63 q0 -20 28 -22 q7 -20 7 -52 q-35 2 -105 2 q-50 0 -85 -2 q0 36 7 52 q27 2 49.5 20 q22.5 18 60.5 73 l60 86 q-37 57 -75 107 q-35 46 -50.5 59 q-15.5 13 -38.5 15 q-8 22 -8 50 q66 -2 120 -2 q92 0 129 2 q0 -26 -6 -50 q-18 -1 -26.5 -5.5 q-8.5 -4.5 -8.5 -13.5 q0 -17 25 -52 q22 -30 38 -54 l36 55 q24 36 24 51 q0 9 -7 13 q-7 4 -23 6 q-8 17 -8 50 q56 -2 93 -2 q37 0 85 2 q0 -25 -7 -50 q-24 -2 -39.5 -14 q-15.5 -12 -42.5 -52 l-71 -101 l77 -108 q33 -50 50 -67 q17 -17 38 -18 Z" /><glyph glyph-name="y" unicode="y" d="M439 458 q69 0 99 3 q0 -35 -8 -53 q-26 -7 -40.5 -25 q-14.5 -18 -36.5 -70 l-147 -350 q-37 -90 -65.5 -135 q-28.5 -45 -54 -61 q-25.5 -16 -60.5 -16 q-28 0 -50 9 q-22 9 -35 23 q-3 12 -3 30 q0 29 7 52 q41 -9 78 -9 q33 0 56.5 12.5 q23.5 12.5 41.5 41.5 q6 10 35 69 q-97 220 -146 322 q-29 62 -46.5 81.5 q-17.5 19.5 -42.5 25.5 q-7 20 -7 52 q76 -2 124 -2 q61 0 143 2 q0 -31 -8 -52 q-31 -5 -44.5 -14 q-13.5 -9 -13.5 -26 q0 -19 20 -61 q39 -76 80 -187 l2 4 l69 174 q16 39 16 63 q0 21 -13 31 q-13 10 -41 16 q-8 20 -8 52 q31 -2 99 -2 Z" /><glyph glyph-name="z" unicode="z" d="M460 158 q0 -92 8 -140 q-5 -9 -14 -14.5 q-9 -5.5 -22 -5.5 q-100 2 -186 2 q-109 0 -181 -2 q-7 10 -12 23 q-5 13 -5 26 q54 73 132.5 184 q78.5 111 119.5 174 l-77 0 q-34 0 -52 -8 q-18 -8 -28.5 -29.5 q-10.5 -21.5 -19.5 -65.5 q-41 -2 -68 10 q9 68 9 149 q62 -3 191 -3 q122 0 182 3 q14 -17 14 -49 q-48 -72 -123 -178 q-75 -106 -132 -181 l105 0 q36 0 54 9 q18 9 26.5 32.5 q8.5 23.5 12.5 71.5 q39 0 66 -8 Z" /><glyph glyph-name="zero" unicode="0" d="M572 255 q0 -79 -35.5 -139 q-35.5 -60 -96 -92.5 q-60.5 -32.5 -132.5 -32.5 q-74 0 -136 32.5 q-62 32.5 -98.5 92.5 q-36.5 60 -36.5 139 q0 78 38.5 135 q38.5 57 100.5 86.5 q62 29.5 132 29.5 q72 0 132 -29.5 q60 -29.5 96 -86.5 q36 -57 36 -135 ZM155 273 q0 -50 21.5 -101 q21.5 -51 61.5 -84 q40 -33 92 -33 q60 0 90.5 50 q30.5 50 30.5 126 q0 47 -20.5 98 q-20.5 51 -59 85 q-38.5 34 -89.5 34 q-59 0 -93 -50 q-34 -50 -34 -125 Z" /><glyph glyph-name="one" unicode="1" d="M257 144 q0 -38 6 -57.5 q6 -19.5 20 -27.5 q14 -8 43 -9 q5 -21 5 -53 q-58 3 -133 3 q-80 0 -134 -3 q0 34 6 53 q28 2 42.5 10 q14.5 8 20.5 27.5 q6 19.5 6 56.5 l0 214 q0 37 -6 56 q-6 19 -20.5 26.5 q-14.5 7.5 -42.5 9.5 q-6 24 -6 53 q48 -3 134 -3 q85 0 133 3 q0 -26 -5 -53 q-28 -2 -42.5 -9.5 q-14.5 -7.5 -20.5 -26.5 q-6 -19 -6 -56 l0 -214 Z" /><glyph glyph-name="two" unicode="2" d="M463 160 q0 -82 11 -133 q-12 -29 -40 -29 q-116 2 -192 2 q-94 0 -170 -2 q-9 12 -13 25 q-4 13 -4 32 q73 69 162 145 q58 51 78.5 85.5 q20.5 34.5 20.5 74.5 q0 44 -20 67.5 q-20 23.5 -59 23.5 q-38 0 -58 -28.5 q-20 -28.5 -30 -105.5 q-40 0 -66 9 q3 26 3 62 q0 46 -5 70 q73 48 185 48 q82 0 128 -31 q46 -31 46 -97 q0 -46 -25.5 -79.5 q-25.5 -33.5 -95.5 -91.5 l-26 -22 q-15 -14 -36.5 -32 q-21.5 -18 -50.5 -44 l123 0 q32 0 46.5 4 q14.5 4 20.5 15.5 q6 11.5 9 39.5 q38 0 58 -8 Z" /><glyph glyph-name="three" unicode="3" d="M430 503 q18 -20 15 -52 q-88 -110 -168 -214 q53 1 96 -20.5 q43 -21.5 68.5 -64.5 q25.5 -43 25.5 -103 q0 -62 -32.5 -112 q-32.5 -50 -94 -79 q-61.5 -29 -144.5 -29 q-49 0 -89 12.5 q-40 12.5 -64 33.5 q2 25 20 43 q42 -30 120 -30 q40 0 76.5 17 q36.5 17 59 49.5 q22.5 32.5 22.5 77.5 q0 54 -32.5 87.5 q-32.5 33.5 -93.5 33.5 q-17 0 -32 -6 q-9 9 -14.5 22 q-5.5 13 -5.5 24 q104 130 158 205 l-109 0 q-31 0 -46.5 -5 q-15.5 -5 -26 -20 q-10.5 -15 -21.5 -47 q-35 0 -54 15 q8 38 10 72.5 q2 34.5 2 89.5 q54 -3 183 -3 q117 0 171 3 Z" /><glyph glyph-name="four" unicode="4" d="M562 87 q-20 -42 -20 -87 l-95 0 l0 -149 q-25 0 -57.5 -7.5 q-32.5 -7.5 -47.5 -14.5 q-15 12 -15 41 l0 130 l-13 0 q-106 0 -255 -7 q-22 36 -22 66 l339 447 q38 2 71 -9 l0 -395 l77 0 q26 0 38 -15 ZM327 102 l0 252 l-173 -252 l173 0 Z" /><glyph glyph-name="five" unicode="5" d="M125 503 q69 -3 182 -3 q51 0 51 50 q19 6 57 6 q-7 -49 -7 -143 q-9 -22 -46 -22 q-172 0 -206 -3 l-21 -88 q150 -28 223 -83.5 q73 -55.5 73 -155.5 q0 -73 -38.5 -125.5 q-38.5 -52.5 -98.5 -79.5 q-60 -27 -121 -27 q-41 0 -72.5 8 q-31.5 8 -48.5 21 q0 26 15 44 q12 -6 37.5 -10 q25.5 -4 55.5 -4 q62 0 103.5 39.5 q41.5 39.5 41.5 105.5 q0 69 -61.5 111 q-61.5 42 -158.5 55 q-19 16 -21 41 l61 263 Z" /><glyph glyph-name="six" unicode="6" d="M299 395 q90 0 141.5 -48.5 q51.5 -48.5 51.5 -134.5 q0 -69 -31.5 -119 q-31.5 -50 -83 -76 q-51.5 -26 -110.5 -26 q-113 0 -172.5 62.5 q-59.5 62.5 -59.5 186.5 q0 139 60 227 q60 88 148 127.5 q88 39.5 178 43.5 q12 -15 11 -43 q-118 -25 -182 -81.5 q-64 -56.5 -84 -160.5 q37 22 68.5 32 q31.5 10 64.5 10 ZM275 49 q48 0 73.5 38 q25.5 38 25.5 91 q0 53 -19.5 87.5 q-19.5 34.5 -48.5 49.5 q-29 15 -60 15 q-45 0 -86 -25 q-3 -28 -3 -62 q0 -68 18.5 -112 q18.5 -44 45.5 -63 q27 -19 54 -19 Z" /><glyph glyph-name="seven" unicode="7" d="M147 -176 q-15 5 -23 17.5 q-8 12.5 -8 36.5 q0 92 54.5 210.5 q54.5 118.5 166.5 301.5 l-134 0 q-32 0 -49.5 -5.5 q-17.5 -5.5 -28.5 -20.5 q-11 -15 -20 -46 q-38 -1 -65 13 q16 67 19 172 q50 -3 180 -3 q122 0 189 3 q15 -18 17 -50 q-37 -54 -73 -116 q-36 -62 -60 -112 q-39 -82 -52.5 -152 q-13.5 -70 -13.5 -190 q-30 -10 -56 -26 q-26 -16 -43 -33 Z" /><glyph glyph-name="eight" unicode="8" d="M343 357 q69 -45 102.5 -90 q33.5 -45 33.5 -105 q0 -81 -57.5 -126 q-57.5 -45 -161.5 -45 q-99 0 -155 41 q-56 41 -56 114 q0 61 32 104.5 q32 43.5 100 81.5 q-54 36 -81.5 71.5 q-27.5 35.5 -27.5 81.5 q0 70 51 111 q51 41 140 41 q88 0 140 -36 q52 -36 52 -99 q0 -91 -112 -145 ZM190 510 q0 -36 21 -61 q21 -25 73 -56 l10 -6 q26 19 37.5 44 q11.5 25 11.5 59 q0 44 -21.5 70 q-21.5 26 -58.5 26 q-34 0 -53.5 -20.5 q-19.5 -20.5 -19.5 -55.5 ZM272 44 q41 0 65 25 q24 25 24 66 q0 48 -32 85 q-32 37 -99 81 q-37 -29 -51.5 -59.5 q-14.5 -30.5 -14.5 -80.5 q0 -54 29 -85.5 q29 -31.5 79 -31.5 Z" /><glyph glyph-name="nine" unicode="9" d="M271 506 q116 0 174 -64.5 q58 -64.5 58 -195.5 q0 -127 -66 -217.5 q-66 -90.5 -161 -139.5 q-95 -49 -182 -59 q-7 9 -9.5 20 q-2.5 11 -2.5 27 q121 40 192.5 102.5 q71.5 62.5 96.5 151.5 q-58 -38 -128 -38 q-59 0 -106 24 q-47 24 -73.5 67 q-26.5 43 -26.5 99 q0 73 32.5 123.5 q32.5 50.5 85.5 75 q53 24.5 116 24.5 ZM298 161 q44 0 83 25 q3 24 3 50 q0 109 -33 162 q-33 53 -92 53 q-45 0 -73.5 -38.5 q-28.5 -38.5 -28.5 -96.5 q0 -83 42 -119 q42 -36 99 -36 Z" /><glyph glyph-name="fraction" unicode="&#x2044;" d="M-127 -8 q-17 3 -32 10.5 q-15 7.5 -21 15.5 l513 697 q13 -2 28 -10 q15 -8 24 -17 l-512 -696 Z" /><glyph glyph-name="asterisk" unicode="*" d="M248 609 q60 12 141 38 q12 -28 12 -64 q0 -8 -2 -26 q-43 7 -127 13 l-21 2 q38 -62 82 -121 q-35 -32 -83 -36 q-9 55 -32 141 q-41 -44 -91 -112 q-19 11 -34.5 28.5 q-15.5 17.5 -22.5 37.5 q61 32 124 75 q-57 26 -134 50 q14 51 43 75 q43 -42 110 -94 q6 59 6 144 q22 1 46 -3.5 q24 -4.5 40 -14.5 q-28 -58 -57 -133 Z" /><glyph glyph-name="backslash" unicode="\" d="M69 714 q14 0 22 -3 l264 -711 q-15 -6 -47 -6 q-11 0 -14 1 l-265 714 q11 5 40 5 Z" /><glyph glyph-name="colon" unicode=":" d="M130 299 q-33 0 -51.5 18 q-18.5 18 -18.5 48 q0 30 21 49.5 q21 19.5 53 19.5 q30 0 48.5 -20 q18.5 -20 18.5 -44 q0 -32 -20 -51.5 q-20 -19.5 -51 -19.5 ZM130 16 q-33 0 -51.5 18 q-18.5 18 -18.5 48 q0 30 21 49.5 q21 19.5 53 19.5 q30 0 48.5 -20 q18.5 -20 18.5 -44 q0 -32 -20 -51.5 q-20 -19.5 -51 -19.5 Z" /><glyph glyph-name="comma" unicode="," d="M215 33 q0 -57 -30 -115 q-30 -58 -79 -104 q-13 1 -25 6 q-12 5 -20 13 q31 35 48 67.5 q17 32.5 17 58.5 q0 43 -54 50 q0 44 11 75 q57 8 92 31 q21 -8 30.5 -27 q9.5 -19 9.5 -55 Z" /><glyph glyph-name="exclam" unicode="!" d="M273 670 q-26 -248 -35 -431 q-21 -8 -61 -8 q-17 252 -44 448 q28 5 64 15.5 q36 10.5 56 20.5 q21 -7 21 -31 q0 -9 -1 -14 ZM278 63 q0 -32 -20 -51.5 q-20 -19.5 -51 -19.5 q-33 0 -51.5 18 q-18.5 18 -18.5 48 q0 30 21 49.5 q21 19.5 53 19.5 q30 0 48.5 -20 q18.5 -20 18.5 -44 Z" /><glyph glyph-name="numbersign" unicode="#" d="M459 440 l-36 -174 l111 0 q0 -19 -2.5 -32 q-2.5 -13 -10.5 -28 l-96 0 l-14 0 l-43 -214 q-39 4 -55 22 l39 192 q-112 0 -154 -1 l-44 -213 q-37 3 -54 26 l38 187 l-111 -2 q0 34 13 63 l111 0 l35 173 q-75 0 -108 -1 q0 35 13 62 l108 0 l44 215 q39 -4 54 -23 l-39 -192 l154 0 l44 215 q18 -2 32.5 -8 q14.5 -6 21.5 -13 l-39 -194 l103 0 q0 -35 -13 -60 l-71 0 l-31 0 ZM400 440 l-155 0 l-35 -174 l154 0 l36 174 Z" /><glyph glyph-name="period" unicode="." d="M132 -9 q-38 0 -59 20.5 q-21 20.5 -21 54.5 q0 35 23.5 57 q23.5 22 60.5 22 q34 0 55.5 -22.5 q21.5 -22.5 21.5 -50.5 q0 -37 -22.5 -59 q-22.5 -22 -58.5 -22 Z" /><glyph glyph-name="question" unicode="?" d="M285 715 q79 0 124 -33 q45 -33 45 -93 q0 -45 -19 -78 q-19 -33 -56 -74 q-38 -43 -56.5 -75 q-18.5 -32 -18.5 -77 q0 -15 3.5 -36 q3.5 -21 8.5 -37 q-21 -11 -51 -11 q-20 14 -35 49 q-15 35 -15 75 q0 47 17.5 78 q17.5 31 50.5 67 q27 30 40.5 53 q13.5 23 13.5 53 q0 40 -21 64 q-21 24 -50 24 q-34 0 -53 -30 q-19 -30 -27 -101 q-43 0 -69 14 q3 38 3 67 q0 27 -3 57 q74 44 168 44 ZM284 -9 q-38 0 -59 20.5 q-21 20.5 -21 54.5 q0 35 23.5 57 q23.5 22 60.5 22 q34 0 55.5 -22.5 q21.5 -22.5 21.5 -50.5 q0 -37 -22.5 -59 q-22.5 -22 -58.5 -22 Z" /><glyph glyph-name="quotedbl" unicode="&quot;" d="M150 662 q-9 -60 -17 -171 l-3 -31 q-13 0 -28 3 q-15 3 -20 8 q-5 119 -22 221 q41 5 69 23 q12 -2 18 -12 q6 -10 5 -24 l-2 -17 ZM302 672 q-9 -64 -20 -213 q-36 0 -50 10 q-8 143 -20 223 q17 2 35.5 8.5 q18.5 6.5 31.5 14.5 q11 -2 17 -10.5 q6 -8.5 6 -21.5 l0 -11 Z" /><glyph glyph-name="quotesingle" unicode="&#39;" d="M153 673 q-10 -67 -20 -214 q-36 0 -50 11 q-5 117 -23 221 q19 3 38 9.5 q19 6.5 31 14.5 q11 -2 17.5 -10.5 q6.5 -8.5 6.5 -20.5 l0 -11 Z" /><glyph glyph-name="semicolon" unicode=";" d="M146 299 q-33 0 -51.5 18 q-18.5 18 -18.5 48 q0 30 21 49.5 q21 19.5 53 19.5 q30 0 48.5 -20 q18.5 -20 18.5 -44 q0 -32 -20 -51.5 q-20 -19.5 -51 -19.5 ZM217 33 q0 -57 -30 -115 q-30 -58 -79 -104 q-13 1 -25 6 q-12 5 -20 13 q31 35 48 67.5 q17 32.5 17 58.5 q0 43 -54 50 q0 44 11 75 q57 8 92 31 q21 -8 30.5 -27 q9.5 -19 9.5 -55 Z" /><glyph glyph-name="slash" unicode="/" d="M87 -9 q-37 6 -55 24 l260 699 q13 -2 28.5 -9.5 q15.5 -7.5 25.5 -15.5 l-259 -698 Z" /><glyph glyph-name="underscore" unicode="_" d="M28 -146 q0 37 12 60 l482 0 q0 -14 -3 -31.5 q-3 -17.5 -9 -27.5 q-74 1 -131 1 q-57 0 -116 0 l-157 -1 l-78 -1 Z" /><glyph glyph-name="braceleft" unicode="{" d="M306 -274 q-103 26 -141 79.5 q-38 53.5 -39 129.5 q0 26 4 76 q4 48 4 70 q-1 54 -22 89.5 q-21 35.5 -77 53.5 q0 28 5 40 q54 18 74.5 51 q20.5 33 21.5 82 q0 17 -2 40 q-2 23 -3 34 q-6 52 -6 80 q1 69 36.5 117.5 q35.5 48.5 134.5 76.5 q12 -15 12 -39 q-48 -16 -66.5 -47 q-18.5 -31 -18.5 -75 q0 -25 5 -56.5 q5 -31.5 6 -40.5 q12 -66 12 -98 q0 -55 -29 -91.5 q-29 -36.5 -102 -51.5 q74 -17 103 -56 q29 -39 29 -98 q0 -32 -10 -100 q-10 -66 -10 -96 q0 -48 19 -80 q19 -32 68 -47 q1 -5 1 -15 q0 -18 -9 -28 Z" /><glyph glyph-name="braceright" unicode="}" d="M48 -274 q-10 13 -10 30 q0 9 1 13 q49 15 68.5 47 q19.5 32 19.5 80 q0 30 -10 96 q-10 68 -10 100 q0 59 29 98 q29 39 102 56 q-73 15 -101.5 51.5 q-28.5 36.5 -28.5 91.5 q0 32 12 98 q1 9 6 40.5 q5 31.5 5 56.5 q0 44 -19 75 q-19 31 -67 47 q0 23 13 39 q98 -28 134 -76.5 q36 -48.5 37 -117.5 q0 -28 -6 -80 q-1 -11 -3 -34 q-2 -23 -2 -40 q0 -48 21 -81.5 q21 -33.5 75 -51.5 q5 -12 5 -40 q-57 -18 -78 -53.5 q-21 -35.5 -21 -89.5 q0 -22 4 -70 q4 -50 4 -76 q-1 -76 -39 -129.5 q-38 -53.5 -141 -79.5 Z" /><glyph glyph-name="bracketleft" unicode="[" d="M35 742 q35 -2 95 -2 q63 0 103 2 q12 -16 12 -50 q-56 -5 -80.5 -12 q-24.5 -7 -34 -24.5 q-9.5 -17.5 -9.5 -55.5 l0 -740 q0 -32 11 -47.5 q11 -15.5 34 -21.5 q23 -6 68 -8 q6 -11 8.5 -22.5 q2.5 -11.5 2.5 -29.5 q-33 2 -100 2 q-72 0 -110 -2 l0 1011 Z" /><glyph glyph-name="bracketright" unicode="]" d="M248 -269 q-38 2 -110 2 q-67 0 -100 -2 q0 18 2.5 29.5 q2.5 11.5 8.5 22.5 q45 2 68 8 q23 6 34 21.5 q11 15.5 11 47.5 l0 740 q0 38 -9.5 55.5 q-9.5 17.5 -34 24.5 q-24.5 7 -80.5 12 q0 34 12 50 q40 -2 103 -2 q60 0 95 2 l0 -1011 Z" /><glyph glyph-name="parenleft" unicode="(" d="M264 726 q-67 -103 -96.5 -214 q-29.5 -111 -29.5 -265 q0 -157 32.5 -280 q32.5 -123 99.5 -230 q-14 -10 -44 -8 q-191 240 -191 511 q0 136 44.5 253 q44.5 117 141.5 248 q24 1 43 -15 Z" /><glyph glyph-name="parenright" unicode=")" d="M88 741 q96 -131 140.5 -246.5 q44.5 -115.5 44.5 -246.5 q0 -148 -49.5 -276 q-49.5 -128 -140.5 -243 q-30 -2 -45 8 q70 112 101 229 q31 117 31 275 q0 155 -29.5 269 q-29.5 114 -96.5 216 q20 16 44 15 Z" /><glyph glyph-name="emdash" unicode="&#x2014;" d="M973 291 q0 -40 -12 -61 q-657 0 -901 -4 q0 16 3.5 36 q3.5 20 8.5 29 l901 0 Z" /><glyph glyph-name="hyphen" unicode="-" d="M359 297 q0 -44 -13 -74 q-186 0 -286 -5 q0 19 4.5 41.5 q4.5 22.5 11.5 37.5 l283 0 Z" /><glyph glyph-name="quoteleft" unicode="&#x2018;" d="M60 531 q0 54 20.5 100.5 q20.5 46.5 61.5 89.5 q30 0 50 -15 q-26 -33 -34.5 -53.5 q-8.5 -20.5 -8.5 -46.5 q0 -43 54 -49 q0 -44 -11 -75 q-57 -8 -92 -31 q-21 8 -30.5 27 q-9.5 19 -9.5 53 Z" /><glyph glyph-name="quoteright" unicode="&#x2019;" d="M203 640 q0 -54 -20.5 -100.5 q-20.5 -46.5 -61.5 -89.5 q-30 0 -50 15 q26 33 34.5 53.5 q8.5 20.5 8.5 46.5 q0 43 -54 49 q0 44 11 75 q57 8 92 31 q21 -7 30.5 -26 q9.5 -19 9.5 -54 Z" /><glyph glyph-name="uni200B" unicode="&#x200b;" d="M444 255 l113 0 q0 -28 -12 -55 l-101 0 l0 -56 q0 -37 6 -56.5 q6 -19.5 20.5 -27.5 q14.5 -8 42.5 -10 q5 -16 5 -53 q-49 3 -151 3 q-94 0 -144 -3 q0 36 6 53 q37 2 56.5 11 q19.5 9 27.5 29.5 q8 20.5 8 60.5 l0 49 l-168 0 q0 31 12 55 l156 0 l0 72 l-162 0 q0 31 10 56 l152 0 l0 74 q0 81 -24 125 q-24 44 -68 44 q-43 0 -66 -42.5 q-23 -42.5 -23 -120.5 q-51 -16 -115 -16 q0 113 55.5 173.5 q55.5 60.5 159.5 60.5 q99 0 151.5 -55 q52.5 -55 52.5 -159 l0 -84 l115 0 q0 -15 -2.5 -27 q-2.5 -12 -8.5 -29 l-104 0 l0 -72 Z" /><glyph glyph-name="dollar" unicode="$" d="M512 187 q0 -79 -53 -133 q-53 -54 -154 -62 l1 -81 q-15 0 -32 3.5 q-17 3.5 -25 9.5 l0 68 q-52 2 -97 17 q-45 15 -95 44 q10 57 10 150 q29 8 73 8 q5 -75 30 -114 q25 -39 79 -47 l0 233 q-56 26 -92.5 51 q-36.5 25 -61.5 65.5 q-25 40.5 -25 98.5 q0 82 49 130 q49 48 133 56 l0 63 q35 0 57 -13 l-1 -50 q45 -3 86 -15 q41 -12 67 -28 q0 -96 6 -137 q-25 -13 -73 -13 q-12 67 -32.5 98.5 q-20.5 31.5 -53.5 38.5 q-1 -71 -1 -221 q72 -35 109.5 -57 q37.5 -22 66.5 -62.5 q29 -40.5 29 -100.5 ZM175 543 q0 -35 20 -60.5 q20 -25.5 57 -47.5 l0 194 q-37 -6 -57 -28 q-20 -22 -20 -58 ZM305 49 q48 6 71.5 31 q23.5 25 23.5 62 q0 39 -24.5 65 q-24.5 26 -71.5 50 q0 -136 1 -208 Z" /><glyph glyph-name="plus" unicode="+" d="M504 288 q0 -21 -2 -35 q-2 -14 -9 -26 q-85 1 -189 1 l0 -215 q-8 -5 -26.5 -8 q-18.5 -3 -34.5 -3 q2 134 2 226 q-71 0 -199 -2 q0 42 10 62 l189 0 q0 112 -1 204 q12 7 25 9 q13 2 35 2 l0 -215 l200 0 Z" /><glyph glyph-name="equal" unicode="=" d="M54 310 q0 16 3.5 33 q3.5 17 8.5 27 l430 0 q0 -37 -11 -59 q-79 1 -203 1 q-138 0 -228 -2 ZM54 139 q0 16 2.5 33.5 q2.5 17.5 8.5 27.5 l432 0 q0 -39 -11 -60 q-79 1 -204 1 q-139 0 -228 -2 Z" /><glyph glyph-name="greater" unicode="&gt;" d="M485 282 q2 -12 2 -18 q0 -22 -12 -42 q-94 -48 -168 -91 q-74 -43 -203 -121 q-18 18 -18 52 q0 8 1 12 l334 186 l-346 205 q18 32 51 43 l359 -226 Z" /><glyph glyph-name="less" unicode="&lt;" d="M454 11 q-193 116 -391 217 q-2 7 -2 21 q0 23 12 44 l355 211 q17 -5 29 -14 q12 -9 22 -25 l-350 -205 l336 -178 q2 -14 2 -22 q0 -35 -13 -49 Z" /><glyph glyph-name="asciitilde" unicode="~" d="M74 187 q-13 6 -20 13 q-7 7 -10 18 q68 108 142 108 q23 0 46 -8 q23 -8 54 -24 q31 -15 52 -22.5 q21 -7.5 42 -7.5 q45 0 89 50 q22 -3 37 -21 q-66 -104 -135 -104 q-23 0 -44 8.5 q-21 8.5 -52 25.5 q-32 17 -51.5 25 q-19.5 8 -41.5 8 q-55 0 -108 -69 Z" /><glyph glyph-name="percent" unicode="%" d="M182 -7 q-17 5 -29.5 15 q-12.5 10 -18.5 22 l551 656 q32 -5 53 -29 l-556 -664 ZM246 359 q-50 0 -86 21.5 q-36 21.5 -54 57 q-18 35.5 -18 74.5 q0 44 19.5 82 q19.5 38 57.5 60.5 q38 22.5 91 22.5 q47 0 80.5 -22 q33.5 -22 51 -57 q17.5 -35 17.5 -72 q0 -46 -19 -84 q-19 -38 -55 -60.5 q-36 -22.5 -85 -22.5 ZM253 410 q24 0 44 27.5 q20 27.5 20 75.5 q0 49 -20.5 81 q-20.5 32 -52.5 32 q-28 0 -47.5 -29 q-19.5 -29 -19.5 -72 q0 -51 20.5 -83 q20.5 -32 55.5 -32 ZM616 -8 q-50 0 -86 21.5 q-36 21.5 -54 57 q-18 35.5 -18 74.5 q0 44 19.5 82 q19.5 38 57.5 60.5 q38 22.5 91 22.5 q47 0 80.5 -22 q33.5 -22 51 -57 q17.5 -35 17.5 -72 q0 -46 -19 -84 q-19 -38 -55 -60.5 q-36 -22.5 -85 -22.5 ZM623 43 q24 0 44 27.5 q20 27.5 20 75.5 q0 49 -20.5 81 q-20.5 32 -52.5 32 q-28 0 -47.5 -29 q-19.5 -29 -19.5 -72 q0 -51 20.5 -83 q20.5 -32 55.5 -32 Z" /><glyph glyph-name="at" unicode="@" d="M819 -37 q26 -6 36 -31 q-45 -63 -134.5 -98.5 q-89.5 -35.5 -196.5 -35.5 q-137 0 -229 54.5 q-92 54.5 -137 151 q-45 96.5 -45 224.5 q0 121 50.5 219.5 q50.5 98.5 146.5 155.5 q96 57 227 57 q114 0 192.5 -40.5 q78.5 -40.5 117.5 -110 q39 -69.5 39 -156.5 q0 -103 -33.5 -186 q-33.5 -83 -88 -129.5 q-54.5 -46.5 -113.5 -46.5 q-76 0 -76 98 l0 49 q-24 -69 -61.5 -108 q-37.5 -39 -85.5 -39 q-131 0 -131 209 q0 77 25 138 q25 61 69 95 q44 34 99 34 q54 0 99 -10 q46 0 75 10 q15 -6 19.5 -23.5 q4.5 -17.5 4.5 -72.5 l0 -178 q0 -53 2.5 -76 q2.5 -23 9 -30.5 q6.5 -7.5 22.5 -7.5 q19 0 44 30.5 q25 30.5 42.5 89.5 q17.5 59 17.5 140 q0 75 -33 136.5 q-33 61.5 -101 98 q-68 36.5 -167 36.5 q-110 0 -187 -48 q-77 -48 -115.5 -133 q-38.5 -85 -38.5 -193 q0 -105 39 -192.5 q39 -87.5 118.5 -139.5 q79.5 -52 196.5 -52 q85 0 157.5 27.5 q72.5 27.5 123.5 83.5 ZM470 80 q18 0 40 28 q22 28 41 82 q19 54 27 128 l2 69 q-38 26 -81 26 q-45 0 -64.5 -40.5 q-19.5 -40.5 -19.5 -140.5 q0 -79 15 -115.5 q15 -36.5 40 -36.5 Z" /><glyph glyph-name="ampersand" unicode="&amp;" d="M590 118 q26 -28 48.5 -37.5 q22.5 -9.5 66.5 -12.5 q0 -32 -9 -58 q-32 0 -80.5 -6 q-48.5 -6 -79.5 -13 q-35 45 -69 87 q-41 -46 -86.5 -67 q-45.5 -21 -103.5 -21 q-113 0 -168 61.5 q-55 61.5 -55 152.5 q0 132 137 214 q-22 38 -32.5 73.5 q-10.5 35.5 -10.5 73.5 q0 65 47.5 108.5 q47.5 43.5 139.5 43.5 q46 0 81 -8.5 q35 -8.5 72 -26.5 q-7 -36 -7 -89 q0 -26 1 -39 q-27 -9 -70 -9 q-4 63 -23.5 91 q-19.5 28 -59.5 28 q-32 0 -51.5 -21 q-19.5 -21 -19.5 -58 q0 -43 19 -83.5 q19 -40.5 75 -110.5 q79 -99 151 -179 q41 71 52 119 q4 13 4 27 q0 23 -16.5 34.5 q-16.5 11.5 -56.5 19.5 q-7 22 -7 49 q44 -3 107 -3 q63 0 101 3 q0 -29 -5 -48 q-32 -11 -46 -27.5 q-14 -16.5 -24 -52.5 q-13 -42 -29 -78.5 q-16 -36.5 -42 -83.5 q15 -17 49 -53 ZM303 68 q37 0 67 13 q30 13 59 42 l-78 91 q-66 76 -80 93 q-24 30 -51 65 q-53 -57 -53 -136 q0 -81 38.5 -124.5 q38.5 -43.5 97.5 -43.5 Z" /><glyph glyph-name="copyright" unicode="©" d="M403 573 q94 0 172.5 -45.5 q78.5 -45.5 124 -124.5 q45.5 -79 45.5 -173 q0 -94 -45.5 -172.5 q-45.5 -78.5 -124 -124.5 q-78.5 -46 -172.5 -46 q-95 0 -174 45.5 q-79 45.5 -124 124 q-45 78.5 -45 173.5 q0 95 45.5 173.5 q45.5 78.5 124 124 q78.5 45.5 173.5 45.5 ZM403 523 q-81 0 -148 -39 q-67 -39 -106 -106 q-39 -67 -39 -148 q0 -82 38.5 -148.5 q38.5 -66.5 105.5 -105 q67 -38.5 149 -38.5 q81 0 148 38.5 q67 38.5 106 105.5 q39 67 39 148 q0 81 -39 148 q-39 67 -106 106 q-67 39 -148 39 ZM413 453 q43 0 74.5 -9.5 q31.5 -9.5 68.5 -31.5 q-7 -42 -7 -111 q-19 -9 -51 -9 q-10 109 -100 109 q-47 0 -68.5 -42.5 q-21.5 -42.5 -21.5 -116.5 q0 -75 29.5 -126 q29.5 -51 89.5 -51 q65 0 111 47 q16 -12 20 -33 q-56 -74 -163 -74 q-52 0 -96.5 26 q-44.5 26 -72 76.5 q-27.5 50.5 -27.5 120.5 q0 67 27 118 q27 51 75.5 79 q48.5 28 111.5 28 Z" /><glyph glyph-name="bar" unicode="|" d="M60 701 q19 12 61 12 q0 -116 -1 -187 l-1 -292 l1 -281 q1 -70 1 -185 q-8 -5 -26.5 -8 q-18.5 -3 -34.5 -3 l0 944 Z" /><glyph glyph-name="asciicircum" unicode="^" d="M276 634 q-125 -147 -202 -255 q-28 22 -34 53 l205 257 q24 12 60 9 q44 -67 102 -151 q58 -84 102 -143 q-17 -14 -49 -14 q-9 0 -14 1 l-170 243 Z" /><glyph glyph-name="grave" unicode="`" d="M185 534 q-64 99 -128 165 q35 16 83 16 q12 0 32 -2 q26 -89 70 -172 q-17 -9 -57 -7 Z" /></font>
</defs>
</svg>
